<svg width="343" height="102" viewBox="0 0 343 102" fill="none" xmlns="http://www.w3.org/2000/svg">
<g filter="url(#filter0_d_101_47)">
<path d="M65.32 53.76C65.32 52.48 65.1333 51.28 64.76 50.16C64.4133 49.0133 63.88 48.0133 63.16 47.16C62.44 46.3067 61.52 45.64 60.4 45.16C59.3067 44.6533 58.0267 44.4 56.56 44.4C53.7067 44.4 51.4533 45.2133 49.8 46.84C48.1733 48.4667 47.1333 50.7733 46.68 53.76H65.32ZM46.48 59.72C46.64 61.8267 47.0133 63.6533 47.6 65.2C48.1867 66.72 48.96 67.9867 49.92 69C50.88 69.9867 52.0133 70.7333 53.32 71.24C54.6533 71.72 56.12 71.96 57.72 71.96C59.32 71.96 60.6933 71.7733 61.84 71.4C63.0133 71.0267 64.0267 70.6133 64.88 70.16C65.76 69.7067 66.52 69.2933 67.16 68.92C67.8267 68.5467 68.4667 68.36 69.08 68.36C69.9067 68.36 70.52 68.6667 70.92 69.28L73.76 72.88C72.6667 74.16 71.44 75.24 70.08 76.12C68.72 76.9733 67.2933 77.6667 65.8 78.2C64.3333 78.7067 62.8267 79.0667 61.28 79.28C59.76 79.4933 58.28 79.6 56.84 79.6C53.9867 79.6 51.3333 79.1333 48.88 78.2C46.4267 77.24 44.2933 75.84 42.48 74C40.6667 72.1333 39.24 69.84 38.2 67.12C37.16 64.3733 36.64 61.2 36.64 57.6C36.64 54.8 37.0933 52.1733 38 49.72C38.9067 47.24 40.2 45.0933 41.88 43.28C43.5867 41.44 45.6533 39.9867 48.08 38.92C50.5333 37.8533 53.2933 37.32 56.36 37.32C58.9467 37.32 61.3333 37.7333 63.52 38.56C65.7067 39.3867 67.5867 40.6 69.16 42.2C70.7333 43.7733 71.96 45.72 72.84 48.04C73.7467 50.3333 74.2 52.96 74.2 55.92C74.2 57.4133 74.04 58.4267 73.72 58.96C73.4 59.4667 72.7867 59.72 71.88 59.72H46.48ZM91.6144 19.56V79H81.7344V19.56H91.6144ZM111.698 37.96V79H101.778V37.96H111.698ZM113.058 26C113.058 26.8533 112.885 27.6533 112.538 28.4C112.191 29.1467 111.725 29.8 111.138 30.36C110.578 30.92 109.911 31.3733 109.138 31.72C108.365 32.04 107.538 32.2 106.658 32.2C105.805 32.2 104.991 32.04 104.218 31.72C103.471 31.3733 102.818 30.92 102.258 30.36C101.698 29.8 101.245 29.1467 100.898 28.4C100.578 27.6533 100.418 26.8533 100.418 26C100.418 25.12 100.578 24.2933 100.898 23.52C101.245 22.7467 101.698 22.08 102.258 21.52C102.818 20.96 103.471 20.52 104.218 20.2C104.991 19.8533 105.805 19.68 106.658 19.68C107.538 19.68 108.365 19.8533 109.138 20.2C109.911 20.52 110.578 20.96 111.138 21.52C111.725 22.08 112.191 22.7467 112.538 23.52C112.885 24.2933 113.058 25.12 113.058 26ZM136.771 57.48C137.997 57.48 139.064 57.32 139.971 57C140.877 56.6533 141.624 56.1867 142.211 55.6C142.824 55.0133 143.277 54.3067 143.571 53.48C143.891 52.6533 144.051 51.7467 144.051 50.76C144.051 48.7333 143.437 47.1333 142.211 45.96C141.011 44.76 139.197 44.16 136.771 44.16C134.344 44.16 132.517 44.76 131.291 45.96C130.091 47.1333 129.491 48.7333 129.491 50.76C129.491 51.72 129.637 52.6133 129.931 53.44C130.251 54.2667 130.704 54.9867 131.291 55.6C131.904 56.1867 132.664 56.6533 133.571 57C134.504 57.32 135.571 57.48 136.771 57.48ZM147.931 80.84C147.931 80.04 147.691 79.3867 147.211 78.88C146.731 78.3733 146.077 77.9867 145.251 77.72C144.424 77.4267 143.451 77.2133 142.331 77.08C141.237 76.9467 140.064 76.8533 138.811 76.8C137.584 76.72 136.304 76.6533 134.971 76.6C133.664 76.5467 132.384 76.44 131.131 76.28C130.037 76.8933 129.144 77.6133 128.451 78.44C127.784 79.2667 127.451 80.2267 127.451 81.32C127.451 82.04 127.624 82.7067 127.971 83.32C128.344 83.96 128.917 84.5067 129.691 84.96C130.491 85.4133 131.517 85.76 132.771 86C134.024 86.2667 135.557 86.4 137.371 86.4C139.211 86.4 140.797 86.2533 142.131 85.96C143.464 85.6933 144.557 85.3067 145.411 84.8C146.291 84.32 146.931 83.7333 147.331 83.04C147.731 82.3733 147.931 81.64 147.931 80.84ZM157.771 39.36V43.04C157.771 44.2133 157.064 44.9333 155.651 45.2L151.971 45.88C152.531 47.2933 152.811 48.84 152.811 50.52C152.811 52.5467 152.397 54.3867 151.571 56.04C150.771 57.6667 149.651 59.0533 148.211 60.2C146.771 61.3467 145.064 62.24 143.091 62.88C141.144 63.4933 139.037 63.8 136.771 63.8C135.971 63.8 135.197 63.76 134.451 63.68C133.704 63.6 132.971 63.4933 132.251 63.36C130.971 64.1333 130.331 65 130.331 65.96C130.331 66.7867 130.704 67.4 131.451 67.8C132.224 68.1733 133.237 68.44 134.491 68.6C135.744 68.76 137.171 68.8667 138.771 68.92C140.371 68.9467 142.011 69.0267 143.691 69.16C145.371 69.2933 147.011 69.5333 148.611 69.88C150.211 70.2 151.637 70.72 152.891 71.44C154.144 72.16 155.144 73.1467 155.891 74.4C156.664 75.6267 157.051 77.2133 157.051 79.16C157.051 80.9733 156.597 82.7333 155.691 84.44C154.811 86.1467 153.517 87.6667 151.811 89C150.131 90.3333 148.051 91.4 145.571 92.2C143.117 93.0267 140.317 93.44 137.171 93.44C134.077 93.44 131.384 93.1333 129.091 92.52C126.797 91.9333 124.891 91.1333 123.371 90.12C121.851 89.1333 120.717 87.9867 119.971 86.68C119.224 85.3733 118.851 84.0133 118.851 82.6C118.851 80.68 119.424 79.08 120.571 77.8C121.744 76.4933 123.344 75.4533 125.371 74.68C124.277 74.12 123.411 73.3733 122.771 72.44C122.131 71.5067 121.811 70.28 121.811 68.76C121.811 68.1467 121.917 67.52 122.131 66.88C122.371 66.2133 122.704 65.56 123.131 64.92C123.584 64.28 124.144 63.68 124.811 63.12C125.477 62.5333 126.264 62.0133 127.171 61.56C125.091 60.44 123.451 58.9467 122.251 57.08C121.077 55.2133 120.491 53.0267 120.491 50.52C120.491 48.4933 120.891 46.6667 121.691 45.04C122.517 43.3867 123.651 41.9867 125.091 40.84C126.557 39.6667 128.277 38.7733 130.251 38.16C132.251 37.5467 134.424 37.24 136.771 37.24C138.531 37.24 140.184 37.4267 141.731 37.8C143.277 38.1467 144.691 38.6667 145.971 39.36H157.771ZM185.716 61.48C182.863 61.6133 180.463 61.8667 178.516 62.24C176.57 62.5867 175.01 63.04 173.836 63.6C172.663 64.16 171.823 64.8133 171.316 65.56C170.81 66.3067 170.556 67.12 170.556 68C170.556 69.7333 171.063 70.9733 172.076 71.72C173.116 72.4667 174.463 72.84 176.116 72.84C178.143 72.84 179.89 72.48 181.356 71.76C182.85 71.0133 184.303 69.8933 185.716 68.4V61.48ZM163.076 43.68C167.796 39.36 173.476 37.2 180.116 37.2C182.516 37.2 184.663 37.6 186.556 38.4C188.45 39.1733 190.05 40.2667 191.356 41.68C192.663 43.0667 193.65 44.7333 194.316 46.68C195.01 48.6267 195.356 50.76 195.356 53.08V79H190.876C189.943 79 189.223 78.8667 188.716 78.6C188.21 78.3067 187.81 77.7333 187.516 76.88L186.636 73.92C185.596 74.8533 184.583 75.68 183.596 76.4C182.61 77.0933 181.583 77.68 180.516 78.16C179.45 78.64 178.303 79 177.076 79.24C175.876 79.5067 174.543 79.64 173.076 79.64C171.343 79.64 169.743 79.4133 168.276 78.96C166.81 78.48 165.543 77.7733 164.476 76.84C163.41 75.9067 162.583 74.7467 161.996 73.36C161.41 71.9733 161.116 70.36 161.116 68.52C161.116 67.48 161.29 66.4533 161.636 65.44C161.983 64.4 162.543 63.4133 163.316 62.48C164.116 61.5467 165.143 60.6667 166.396 59.84C167.65 59.0133 169.183 58.2933 170.996 57.68C172.836 57.0667 174.97 56.5733 177.396 56.2C179.823 55.8 182.596 55.56 185.716 55.48V53.08C185.716 50.3333 185.13 48.3067 183.956 47C182.783 45.6667 181.09 45 178.876 45C177.276 45 175.943 45.1867 174.876 45.56C173.836 45.9333 172.916 46.36 172.116 46.84C171.316 47.2933 170.583 47.7067 169.916 48.08C169.276 48.4533 168.556 48.64 167.756 48.64C167.063 48.64 166.476 48.4667 165.996 48.12C165.516 47.7467 165.13 47.32 164.836 46.84L163.076 43.68ZM213.981 45.08C215.261 42.6267 216.781 40.7067 218.541 39.32C220.301 37.9067 222.381 37.2 224.781 37.2C226.675 37.2 228.195 37.6133 229.341 38.44L228.701 45.84C228.568 46.32 228.368 46.6667 228.101 46.88C227.861 47.0667 227.528 47.16 227.101 47.16C226.701 47.16 226.101 47.0933 225.301 46.96C224.528 46.8267 223.768 46.76 223.021 46.76C221.928 46.76 220.955 46.92 220.101 47.24C219.248 47.56 218.475 48.0267 217.781 48.64C217.115 49.2267 216.515 49.9467 215.981 50.8C215.475 51.6533 214.995 52.6267 214.541 53.72V79H204.661V37.96H210.461C211.475 37.96 212.181 38.1467 212.581 38.52C212.981 38.8667 213.248 39.5067 213.381 40.44L213.981 45.08ZM262.733 46.64C262.44 47.0133 262.146 47.3067 261.853 47.52C261.586 47.7333 261.186 47.84 260.653 47.84C260.146 47.84 259.653 47.6933 259.173 47.4C258.693 47.08 258.12 46.7333 257.453 46.36C256.786 45.96 255.986 45.6133 255.053 45.32C254.146 45 253.013 44.84 251.653 44.84C249.92 44.84 248.4 45.16 247.093 45.8C245.786 46.4133 244.693 47.3067 243.813 48.48C242.96 49.6533 242.32 51.08 241.893 52.76C241.466 54.4133 241.253 56.2933 241.253 58.4C241.253 60.5867 241.48 62.5333 241.933 64.24C242.413 65.9467 243.093 67.3867 243.973 68.56C244.853 69.7067 245.92 70.5867 247.173 71.2C248.426 71.7867 249.84 72.08 251.413 72.08C252.986 72.08 254.253 71.8933 255.213 71.52C256.2 71.12 257.026 70.6933 257.693 70.24C258.36 69.76 258.933 69.3333 259.413 68.96C259.92 68.56 260.48 68.36 261.093 68.36C261.893 68.36 262.493 68.6667 262.893 69.28L265.733 72.88C264.64 74.16 263.453 75.24 262.173 76.12C260.893 76.9733 259.56 77.6667 258.173 78.2C256.813 78.7067 255.4 79.0667 253.933 79.28C252.493 79.4933 251.053 79.6 249.613 79.6C247.08 79.6 244.693 79.1333 242.453 78.2C240.213 77.24 238.253 75.8533 236.573 74.04C234.893 72.2267 233.56 70.0133 232.573 67.4C231.613 64.76 231.133 61.76 231.133 58.4C231.133 55.3867 231.56 52.6 232.413 50.04C233.293 47.4533 234.573 45.2267 236.253 43.36C237.933 41.4667 240.013 39.9867 242.493 38.92C244.973 37.8533 247.826 37.32 251.053 37.32C254.12 37.32 256.8 37.8133 259.093 38.8C261.413 39.7867 263.493 41.2 265.333 43.04L262.733 46.64Z" fill="#1E88E5"/>
</g>
<mask id="mask0_101_47" style="mask-type:alpha" maskUnits="userSpaceOnUse" x="0" y="24" width="114" height="66">
<g clip-path="url(#clip0_101_47)">
<path d="M61.0792 24.3588C60.3488 24.5924 59.6096 25.0597 59.1376 25.577C58.4429 26.3279 58.3093 26.7284 57.579 30.0493C57.2049 31.7514 56.4568 35.1474 55.9224 37.6005C55.3792 40.0536 54.5063 44.067 53.9631 46.5034C49.5188 66.7957 49.1982 68.2475 47.7821 74.689C47.0696 77.9431 46.2681 81.5894 46.0098 82.7825C45.3953 85.536 45.3774 85.7196 45.5467 86.4956C45.8495 87.8222 46.6778 88.8318 47.9692 89.4326C48.6371 89.7413 48.7885 89.7747 49.5456 89.8164C50.5163 89.8581 51.1042 89.758 51.8701 89.3992C52.7963 88.9654 53.6424 88.0726 53.9987 87.1631C54.0878 86.9545 54.5509 84.9436 55.0496 82.6991C55.9046 78.7775 56.2609 77.1337 59.1821 63.842C59.8946 60.5795 60.9188 55.9236 61.4532 53.4956C63.1543 45.7274 64.9801 37.4336 65.942 33.028C66.4585 30.6751 66.886 28.539 66.886 28.2971C66.886 26.4781 65.6213 24.8677 63.7867 24.3337C62.9762 24.1001 61.8629 24.1085 61.0792 24.3588Z" fill="black"/>
<path d="M27.1194 30.842C26.5583 30.9504 26.0061 31.159 25.5608 31.426C25.3381 31.5595 19.6827 36.8078 12.9852 43.0824C-0.160459 55.4147 0.552041 54.6971 0.177979 55.9904C-0.0446777 56.7747 -0.0446777 56.975 0.177979 57.7343C0.569854 59.0609 -0.187178 58.2933 12.8159 70.5087C19.4066 76.6915 25.0353 81.9231 25.3203 82.115C27.7963 83.8589 31.3231 82.6991 32.196 79.8705C32.3117 79.4951 32.3385 79.1697 32.3117 78.5689C32.2761 77.8847 32.2227 77.6678 31.9733 77.1421C31.6794 76.533 31.5903 76.4496 21.268 66.7623C15.5502 61.3889 10.8655 56.9416 10.8655 56.8748C10.8655 56.8081 15.4611 52.4526 21.072 47.1959C27.6716 41.0131 31.4033 37.467 31.626 37.1499C32.5077 35.89 32.57 34.1545 31.7774 32.8612C30.86 31.3593 28.8917 30.5082 27.1194 30.842Z" fill="black"/>
<path d="M85.019 30.8837C83.879 31.159 82.7925 31.9183 82.2225 32.8612C81.4298 34.1545 81.4922 35.89 82.3739 37.1499C82.5965 37.467 86.3283 41.0131 92.9278 47.1959C98.5387 52.4526 103.134 56.8081 103.134 56.8748C103.134 56.9416 98.4497 61.3889 92.7318 66.7623C82.4095 76.4496 82.3204 76.533 82.0265 77.1421C81.7772 77.6678 81.7237 77.8847 81.6881 78.5689C81.6258 79.8789 82.0533 80.9219 83.0151 81.7813C84.5737 83.1747 86.9695 83.3166 88.6795 82.115C88.9645 81.9231 94.5933 76.6915 101.184 70.5087C114.187 58.2933 113.43 59.0609 113.822 57.7343C114.045 56.975 114.045 56.7747 113.822 55.9904C113.448 54.6971 114.16 55.4147 101.015 43.0824C94.3172 36.8078 88.6528 31.5595 88.4301 31.426C87.5039 30.8587 86.07 30.6334 85.019 30.8837Z" fill="black"/>
</g>
</mask>
<g mask="url(#mask0_101_47)">
<rect x="-4.57458" y="24" width="45.0144" height="66" fill="#ADB5BD"/>
</g>
<mask id="mask1_101_47" style="mask-type:alpha" maskUnits="userSpaceOnUse" x="280" y="18" width="63" height="73">
<rect x="280" y="18" width="63" height="73" fill="#D9D9D9"/>
</mask>
<g mask="url(#mask1_101_47)">
<path d="M295.728 28.0717C295.168 28.2668 294.601 28.657 294.239 29.089C293.706 29.7161 293.604 30.0506 293.044 32.8238C292.757 34.2452 292.183 37.0812 291.774 39.1297C291.357 41.1783 290.688 44.5298 290.271 46.5645C286.864 63.5103 286.618 64.7227 285.532 70.1019C284.986 72.8194 284.371 75.8644 284.173 76.8608C283.702 79.1602 283.688 79.3135 283.818 79.9615C284.05 81.0694 284.685 81.9125 285.675 82.4142C286.187 82.672 286.304 82.6999 286.884 82.7347C287.628 82.7695 288.079 82.6859 288.666 82.3863C289.377 82.024 290.025 81.2784 290.299 80.5189C290.367 80.3447 290.722 78.6655 291.104 76.7911C291.76 73.5162 292.033 72.1435 294.273 61.0437C294.819 58.3193 295.605 54.4312 296.015 52.4035C297.319 45.9164 298.719 38.9904 299.456 35.3113C299.853 33.3464 300.18 31.5626 300.18 31.3605C300.18 29.8415 299.211 28.4967 297.804 28.0508C297.182 27.8557 296.329 27.8627 295.728 28.0717Z" fill="#ADB5BD"/>
<path d="M314.084 33.5206C313.21 33.7505 312.377 34.3846 311.94 35.1719C311.332 36.252 311.38 37.7013 312.056 38.7534C312.227 39.0182 315.088 41.9796 320.149 47.1428C324.451 51.5325 327.975 55.1698 327.975 55.2255C327.975 55.2812 324.383 58.9951 319.998 63.4824C312.083 71.5721 312.015 71.6418 311.79 72.1505C311.599 72.5894 311.558 72.7706 311.53 73.342C311.482 74.4359 311.81 75.3069 312.548 76.0246C313.743 77.1882 315.58 77.3067 316.891 76.3033C317.11 76.1431 321.426 71.7742 326.479 66.611C336.45 56.41 335.869 57.0511 336.17 55.9432C336.34 55.3091 336.34 55.1419 336.17 54.4869C335.883 53.4069 336.429 54.0061 326.349 43.7076C321.214 38.4677 316.871 34.085 316.7 33.9735C315.99 33.4996 314.89 33.3115 314.084 33.5206Z" fill="#ADB5BD"/>
</g>
<defs>
<filter id="filter0_d_101_47" x="32.64" y="19.56" width="237.093" height="81.88" filterUnits="userSpaceOnUse" color-interpolation-filters="sRGB">
<feFlood flood-opacity="0" result="BackgroundImageFix"/>
<feColorMatrix in="SourceAlpha" type="matrix" values="0 0 0 0 0 0 0 0 0 0 0 0 0 0 0 0 0 0 127 0" result="hardAlpha"/>
<feOffset dy="4"/>
<feGaussianBlur stdDeviation="2"/>
<feComposite in2="hardAlpha" operator="out"/>
<feColorMatrix type="matrix" values="0 0 0 0 0 0 0 0 0 0 0 0 0 0 0 0 0 0 0.25 0"/>
<feBlend mode="normal" in2="BackgroundImageFix" result="effect1_dropShadow_101_47"/>
<feBlend mode="normal" in="SourceGraphic" in2="effect1_dropShadow_101_47" result="shape"/>
</filter>
<clipPath id="clip0_101_47">
<rect width="114" height="66" fill="white" transform="translate(0 24)"/>
</clipPath>
</defs>
</svg>
