<svg width="222" height="65" viewBox="0 0 222 65" fill="none" xmlns="http://www.w3.org/2000/svg">
<g filter="url(#filter0_d_103_20)">
<path d="M46.1835 32.5405C46.1835 31.7565 46.0692 31.0215 45.8405 30.3355C45.6282 29.6332 45.3015 29.0207 44.8605 28.498C44.4195 27.9753 43.856 27.567 43.17 27.273C42.5003 26.9627 41.7163 26.8075 40.818 26.8075C39.0703 26.8075 37.6902 27.3057 36.6775 28.302C35.6812 29.2983 35.0442 30.7112 34.7665 32.5405H46.1835ZM34.644 36.191C34.742 37.4813 34.9707 38.6002 35.33 39.5475C35.6893 40.4785 36.163 41.2543 36.751 41.875C37.339 42.4793 38.0332 42.9367 38.8335 43.247C39.6502 43.541 40.5485 43.688 41.5285 43.688C42.5085 43.688 43.3497 43.5737 44.052 43.345C44.7707 43.1163 45.3913 42.8632 45.914 42.5855C46.453 42.3078 46.9185 42.0547 47.3105 41.826C47.7188 41.5973 48.1108 41.483 48.4865 41.483C48.9928 41.483 49.3685 41.6708 49.6135 42.0465L51.353 44.2515C50.6833 45.0355 49.932 45.697 49.099 46.236C48.266 46.7587 47.3922 47.1833 46.4775 47.51C45.5792 47.8203 44.6563 48.0408 43.709 48.1715C42.778 48.3022 41.8715 48.3675 40.9895 48.3675C39.2418 48.3675 37.6167 48.0817 36.114 47.51C34.6113 46.922 33.3047 46.0645 32.194 44.9375C31.0833 43.7942 30.2095 42.3895 29.5725 40.7235C28.9355 39.0412 28.617 37.0975 28.617 34.8925C28.617 33.1775 28.8947 31.5687 29.45 30.066C30.0053 28.547 30.7975 27.2322 31.8265 26.1215C32.8718 24.9945 34.1377 24.1043 35.624 23.451C37.1267 22.7977 38.8172 22.471 40.6955 22.471C42.2798 22.471 43.7417 22.7242 45.081 23.2305C46.4203 23.7368 47.5718 24.48 48.5355 25.46C49.4992 26.4237 50.2505 27.616 50.7895 29.037C51.3448 30.4417 51.6225 32.0505 51.6225 33.8635C51.6225 34.7782 51.5245 35.3988 51.3285 35.7255C51.1325 36.0358 50.7568 36.191 50.2015 36.191H34.644ZM62.2888 11.593V48H56.2373V11.593H62.2888ZM74.5901 22.863V48H68.5141V22.863H74.5901ZM75.4231 15.5375C75.4231 16.0602 75.3169 16.5502 75.1046 17.0075C74.8923 17.4648 74.6064 17.865 74.2471 18.208C73.9041 18.551 73.4958 18.8287 73.0221 19.041C72.5484 19.237 72.0421 19.335 71.5031 19.335C70.9804 19.335 70.4823 19.237 70.0086 19.041C69.5513 18.8287 69.1511 18.551 68.8081 18.208C68.4651 17.865 68.1874 17.4648 67.9751 17.0075C67.7791 16.5502 67.6811 16.0602 67.6811 15.5375C67.6811 14.9985 67.7791 14.4922 67.9751 14.0185C68.1874 13.5448 68.4651 13.1365 68.8081 12.7935C69.1511 12.4505 69.5513 12.181 70.0086 11.985C70.4823 11.7727 70.9804 11.6665 71.5031 11.6665C72.0421 11.6665 72.5484 11.7727 73.0221 11.985C73.4958 12.181 73.9041 12.4505 74.2471 12.7935C74.6064 13.1365 74.8923 13.5448 75.1046 14.0185C75.3169 14.4922 75.4231 14.9985 75.4231 15.5375ZM89.947 34.819C90.6983 34.819 91.3517 34.721 91.907 34.525C92.4623 34.3127 92.9197 34.0268 93.279 33.6675C93.6547 33.3082 93.9323 32.8753 94.112 32.369C94.308 31.8627 94.406 31.3073 94.406 30.703C94.406 29.4617 94.0303 28.4817 93.279 27.763C92.544 27.028 91.4333 26.6605 89.947 26.6605C88.4607 26.6605 87.3418 27.028 86.5905 27.763C85.8555 28.4817 85.488 29.4617 85.488 30.703C85.488 31.291 85.5778 31.8382 85.7575 32.3445C85.9535 32.8508 86.2312 33.2918 86.5905 33.6675C86.9662 34.0268 87.4317 34.3127 87.987 34.525C88.5587 34.721 89.212 34.819 89.947 34.819ZM96.7825 49.127C96.7825 48.637 96.6355 48.2368 96.3415 47.9265C96.0475 47.6162 95.6473 47.3793 95.141 47.216C94.6347 47.0363 94.0385 46.9057 93.3525 46.824C92.6828 46.7423 91.9642 46.6852 91.1965 46.6525C90.4452 46.6035 89.6612 46.5627 88.8445 46.53C88.0442 46.4973 87.2602 46.432 86.4925 46.334C85.8228 46.7097 85.2757 47.1507 84.851 47.657C84.4427 48.1633 84.2385 48.7513 84.2385 49.421C84.2385 49.862 84.3447 50.2703 84.557 50.646C84.7857 51.038 85.1368 51.3728 85.6105 51.6505C86.1005 51.9282 86.7293 52.1405 87.497 52.2875C88.2647 52.4508 89.2038 52.5325 90.3145 52.5325C91.4415 52.5325 92.4133 52.4427 93.23 52.263C94.0467 52.0997 94.7163 51.8628 95.239 51.5525C95.778 51.2585 96.17 50.8992 96.415 50.4745C96.66 50.0662 96.7825 49.617 96.7825 49.127ZM102.81 23.7205V25.9745C102.81 26.6932 102.377 27.1342 101.511 27.2975L99.257 27.714C99.6 28.5797 99.7715 29.527 99.7715 30.556C99.7715 31.7973 99.5183 32.9243 99.012 33.937C98.522 34.9333 97.836 35.7827 96.954 36.485C96.072 37.1873 95.0267 37.7345 93.818 38.1265C92.6257 38.5022 91.3353 38.69 89.947 38.69C89.457 38.69 88.9833 38.6655 88.526 38.6165C88.0687 38.5675 87.6195 38.5022 87.1785 38.4205C86.3945 38.8942 86.0025 39.425 86.0025 40.013C86.0025 40.5193 86.2312 40.895 86.6885 41.14C87.1622 41.3687 87.7828 41.532 88.5505 41.63C89.3182 41.728 90.192 41.7933 91.172 41.826C92.152 41.8423 93.1565 41.8913 94.1855 41.973C95.2145 42.0547 96.219 42.2017 97.199 42.414C98.179 42.61 99.0528 42.9285 99.8205 43.3695C100.588 43.8105 101.201 44.4148 101.658 45.1825C102.132 45.9338 102.369 46.9057 102.369 48.098C102.369 49.2087 102.091 50.2867 101.536 51.332C100.997 52.3773 100.204 53.3083 99.159 54.125C98.13 54.9417 96.856 55.595 95.337 56.085C93.8343 56.5913 92.1193 56.8445 90.192 56.8445C88.2973 56.8445 86.6477 56.6567 85.243 56.281C83.8383 55.9217 82.6705 55.4317 81.7395 54.811C80.8085 54.2067 80.1143 53.5043 79.657 52.704C79.1997 51.9037 78.971 51.0707 78.971 50.205C78.971 49.029 79.3222 48.049 80.0245 47.265C80.7432 46.4647 81.7232 45.8277 82.9645 45.354C82.2948 45.011 81.764 44.5537 81.372 43.982C80.98 43.4103 80.784 42.659 80.784 41.728C80.784 41.3523 80.8493 40.9685 80.98 40.5765C81.127 40.1682 81.3312 39.768 81.5925 39.376C81.8702 38.984 82.2132 38.6165 82.6215 38.2735C83.0298 37.9142 83.5117 37.5957 84.067 37.318C82.793 36.632 81.7885 35.7173 81.0535 34.574C80.3348 33.4307 79.9755 32.0913 79.9755 30.556C79.9755 29.3147 80.2205 28.1958 80.7105 27.1995C81.2168 26.1868 81.911 25.3293 82.793 24.627C83.6913 23.9083 84.7448 23.3612 85.9535 22.9855C87.1785 22.6098 88.5097 22.422 89.947 22.422C91.025 22.422 92.0377 22.5363 92.985 22.765C93.9323 22.9773 94.798 23.2958 95.582 23.7205H102.81ZM119.926 37.269C118.179 37.3507 116.709 37.5058 115.516 37.7345C114.324 37.9468 113.368 38.2245 112.65 38.5675C111.931 38.9105 111.417 39.3107 111.106 39.768C110.796 40.2253 110.641 40.7235 110.641 41.2625C110.641 42.3242 110.951 43.0837 111.572 43.541C112.209 43.9983 113.034 44.227 114.046 44.227C115.288 44.227 116.357 44.0065 117.256 43.5655C118.17 43.1082 119.061 42.4222 119.926 41.5075V37.269ZM106.059 26.3665C108.95 23.7205 112.429 22.3975 116.496 22.3975C117.966 22.3975 119.281 22.6425 120.441 23.1325C121.6 23.6062 122.58 24.2758 123.381 25.1415C124.181 25.9908 124.785 27.0117 125.194 28.204C125.618 29.3963 125.831 30.703 125.831 32.124V48H123.087C122.515 48 122.074 47.9183 121.764 47.755C121.453 47.5753 121.208 47.2242 121.029 46.7015L120.49 44.8885C119.853 45.4602 119.232 45.9665 118.628 46.4075C118.023 46.8322 117.395 47.1915 116.741 47.4855C116.088 47.7795 115.386 48 114.634 48.147C113.899 48.3103 113.083 48.392 112.184 48.392C111.123 48.392 110.143 48.2532 109.244 47.9755C108.346 47.6815 107.57 47.2487 106.917 46.677C106.263 46.1053 105.757 45.3948 105.398 44.5455C105.038 43.6962 104.859 42.708 104.859 41.581C104.859 40.944 104.965 40.3152 105.177 39.6945C105.39 39.0575 105.733 38.4532 106.206 37.8815C106.696 37.3098 107.325 36.7708 108.093 36.2645C108.86 35.7582 109.8 35.3172 110.91 34.9415C112.037 34.5658 113.344 34.2637 114.83 34.035C116.317 33.79 118.015 33.643 119.926 33.594V32.124C119.926 30.4417 119.567 29.2003 118.848 28.4C118.13 27.5833 117.092 27.175 115.737 27.175C114.757 27.175 113.94 27.2893 113.287 27.518C112.65 27.7467 112.086 28.008 111.596 28.302C111.106 28.5797 110.657 28.8328 110.249 29.0615C109.857 29.2902 109.416 29.4045 108.926 29.4045C108.501 29.4045 108.142 29.2983 107.848 29.086C107.554 28.8573 107.317 28.596 107.137 28.302L106.059 26.3665ZM137.239 27.224C138.023 25.7213 138.954 24.5453 140.032 23.696C141.11 22.8303 142.384 22.3975 143.854 22.3975C145.013 22.3975 145.944 22.6507 146.647 23.157L146.255 27.6895C146.173 27.9835 146.05 28.1958 145.887 28.3265C145.74 28.4408 145.536 28.498 145.275 28.498C145.03 28.498 144.662 28.4572 144.172 28.3755C143.698 28.2938 143.233 28.253 142.776 28.253C142.106 28.253 141.51 28.351 140.987 28.547C140.464 28.743 139.991 29.0288 139.566 29.4045C139.158 29.7638 138.79 30.2048 138.464 30.7275C138.153 31.2502 137.859 31.8463 137.582 32.516V48H131.53V22.863H135.083C135.703 22.863 136.136 22.9773 136.381 23.206C136.626 23.4183 136.789 23.8103 136.871 24.382L137.239 27.224ZM167.099 28.1795C166.919 28.4082 166.74 28.5878 166.56 28.7185C166.397 28.8492 166.152 28.9145 165.825 28.9145C165.515 28.9145 165.213 28.8247 164.919 28.645C164.625 28.449 164.273 28.2367 163.865 28.008C163.457 27.763 162.967 27.5507 162.395 27.371C161.84 27.175 161.146 27.077 160.313 27.077C159.251 27.077 158.32 27.273 157.52 27.665C156.719 28.0407 156.05 28.5878 155.511 29.3065C154.988 30.0252 154.596 30.899 154.335 31.928C154.073 32.9407 153.943 34.0922 153.943 35.3825C153.943 36.7218 154.081 37.9142 154.359 38.9595C154.653 40.0048 155.07 40.8868 155.609 41.6055C156.148 42.3078 156.801 42.8468 157.569 43.2225C158.336 43.5818 159.202 43.7615 160.166 43.7615C161.129 43.7615 161.905 43.6472 162.493 43.4185C163.097 43.1735 163.604 42.9122 164.012 42.6345C164.42 42.3405 164.772 42.0792 165.066 41.8505C165.376 41.6055 165.719 41.483 166.095 41.483C166.585 41.483 166.952 41.6708 167.197 42.0465L168.937 44.2515C168.267 45.0355 167.54 45.697 166.756 46.236C165.972 46.7587 165.155 47.1833 164.306 47.51C163.473 47.8203 162.607 48.0408 161.709 48.1715C160.827 48.3022 159.945 48.3675 159.063 48.3675C157.511 48.3675 156.05 48.0817 154.678 47.51C153.306 46.922 152.105 46.0727 151.076 44.962C150.047 43.8513 149.23 42.4957 148.626 40.895C148.038 39.278 147.744 37.4405 147.744 35.3825C147.744 33.5368 148.005 31.83 148.528 30.262C149.067 28.6777 149.851 27.3138 150.88 26.1705C151.909 25.0108 153.183 24.1043 154.702 23.451C156.221 22.7977 157.969 22.471 159.945 22.471C161.823 22.471 163.465 22.7732 164.87 23.3775C166.291 23.9818 167.565 24.8475 168.692 25.9745L167.099 28.1795Z" fill="#1E88E5"/>
</g>
<mask id="mask0_103_20" style="mask-type:alpha" maskUnits="userSpaceOnUse" x="0" y="9" width="87" height="48">
<g clip-path="url(#clip0_103_20)">
<path d="M46.6131 9.26094C46.0557 9.43085 45.4916 9.77067 45.1313 10.1469C44.6012 10.693 44.4992 10.9843 43.9419 13.3995C43.6564 14.6374 43.0855 17.1072 42.6777 18.8913C42.2631 20.6754 41.597 23.5942 41.1824 25.3661C37.7907 40.1242 37.546 41.18 36.4653 45.8647C35.9216 48.2314 35.3099 50.8832 35.1128 51.751C34.6438 53.7535 34.6302 53.887 34.7593 54.4513C34.9904 55.4162 35.6225 56.1505 36.6081 56.5874C37.1178 56.8119 37.2334 56.8362 37.8111 56.8665C38.552 56.8969 39.0006 56.824 39.5851 56.5631C40.292 56.2475 40.9377 55.5982 41.2095 54.9368C41.2775 54.7851 41.631 53.3226 42.0116 51.6903C42.6641 48.8382 42.936 47.6427 45.1653 37.976C45.7091 35.6033 46.4907 32.2172 46.8985 30.4513C48.1967 24.8018 49.5901 18.7699 50.3242 15.5659C50.7184 13.8546 51.0446 12.3011 51.0446 12.1252C51.0446 10.8023 50.0795 9.6311 48.6793 9.24273C48.0608 9.07282 47.2112 9.07889 46.6131 9.26094Z" fill="black"/>
<path d="M20.6962 13.976C20.268 14.0549 19.8466 14.2066 19.5067 14.4008C19.3368 14.4979 15.0208 18.3148 9.90953 22.8782C-0.122661 31.847 0.421089 31.3252 0.13562 32.2658C-0.0343018 32.8362 -0.0343018 32.9818 0.13562 33.534C0.434683 34.4989 -0.143052 33.9406 9.78039 42.8245C14.8101 47.3211 19.1057 51.1259 19.3232 51.2655C21.2127 52.5338 23.9043 51.6903 24.5704 49.6331C24.6587 49.3601 24.6791 49.1234 24.6587 48.6865C24.6316 48.1889 24.5908 48.0311 24.4005 47.6488C24.1762 47.2058 24.1082 47.1452 16.2306 40.0999C11.867 36.1919 8.29187 32.9575 8.29187 32.909C8.29187 32.8605 11.7991 29.6928 16.0811 25.8698C21.1176 21.3732 23.9655 18.7942 24.1354 18.5636C24.8083 17.6473 24.8559 16.3851 24.2509 15.4445C23.5509 14.3522 22.0487 13.7333 20.6962 13.976Z" fill="black"/>
<path d="M64.883 14.0063C64.013 14.2066 63.1837 14.7588 62.7487 15.4445C62.1438 16.3851 62.1914 17.6473 62.8643 18.5636C63.0342 18.7942 65.8821 21.3732 70.9186 25.8698C75.2006 29.6928 78.7078 32.8604 78.7078 32.909C78.7078 32.9575 75.1326 36.1919 70.769 40.0999C62.8915 47.1451 62.8235 47.2058 62.5992 47.6488C62.4089 48.0311 62.3681 48.1889 62.3409 48.6865C62.2933 49.6392 62.6196 50.3977 63.3537 51.0228C64.5431 52.0362 66.3715 52.1393 67.6765 51.2655C67.894 51.1259 72.1896 47.3211 77.2193 42.8245C87.1427 33.9406 86.565 34.4989 86.8641 33.534C87.034 32.9818 87.034 32.8362 86.8641 32.2658C86.5786 31.3252 87.1223 31.847 77.0901 22.8781C71.9789 18.3148 67.6561 14.4979 67.4862 14.4008C66.7793 13.9881 65.685 13.8243 64.883 14.0063Z" fill="black"/>
</g>
</mask>
<g mask="url(#mask0_103_20)">
<rect x="-3.49109" y="9" width="34.3531" height="48" fill="#ADB5BD"/>
</g>
<mask id="mask1_103_20" style="mask-type:alpha" maskUnits="userSpaceOnUse" x="180" y="5" width="42" height="56">
<rect x="180" y="5" width="42" height="56" fill="#D9D9D9"/>
</mask>
<g mask="url(#mask1_103_20)">
<path d="M190.485 12.7262C190.112 12.8759 189.734 13.1752 189.493 13.5066C189.138 13.9877 189.069 14.2443 188.696 16.3717C188.505 17.4621 188.122 19.6376 187.849 21.2091C187.571 22.7806 187.125 25.3516 186.848 26.9124C184.576 39.912 184.412 40.8421 183.688 44.9686C183.324 47.0532 182.914 49.3891 182.782 50.1535C182.468 51.9174 182.459 52.035 182.545 52.5321C182.7 53.382 183.123 54.0287 183.784 54.4136C184.125 54.6114 184.202 54.6328 184.589 54.6595C185.086 54.6862 185.386 54.6221 185.778 54.3922C186.251 54.1143 186.684 53.5423 186.866 52.9597C186.911 52.8261 187.148 51.5379 187.403 50.1C187.84 47.5878 188.022 46.5347 189.515 38.0198C189.88 35.9298 190.403 32.9472 190.676 31.3917C191.546 26.4153 192.479 21.1022 192.971 18.2799C193.235 16.7726 193.454 15.4042 193.454 15.2492C193.454 14.0839 192.807 13.0523 191.869 12.7102C191.455 12.5605 190.886 12.5659 190.485 12.7262Z" fill="#ADB5BD"/>
<path d="M202.723 16.9062C202.14 17.0825 201.585 17.569 201.293 18.173C200.888 19.0015 200.92 20.1133 201.371 20.9204C201.485 21.1235 203.392 23.3953 206.766 27.3561C209.634 30.7236 211.983 33.5138 211.983 33.5565C211.983 33.5993 209.589 36.4483 206.666 39.8906C201.389 46.0964 201.343 46.1499 201.193 46.5401C201.066 46.8768 201.038 47.0158 201.02 47.4541C200.988 48.2933 201.207 48.9614 201.699 49.512C202.495 50.4047 203.72 50.4955 204.594 49.7258C204.74 49.6029 207.617 46.2514 210.986 42.2906C217.633 34.4652 217.246 34.957 217.447 34.1071C217.56 33.6207 217.56 33.4924 217.447 32.9899C217.255 32.1614 217.62 32.6211 210.9 24.7209C207.476 20.7013 204.58 17.3391 204.467 17.2536C203.993 16.8901 203.26 16.7458 202.723 16.9062Z" fill="#ADB5BD"/>
</g>
<defs>
<filter id="filter0_d_103_20" x="24.617" y="11.593" width="148.32" height="53.2515" filterUnits="userSpaceOnUse" color-interpolation-filters="sRGB">
<feFlood flood-opacity="0" result="BackgroundImageFix"/>
<feColorMatrix in="SourceAlpha" type="matrix" values="0 0 0 0 0 0 0 0 0 0 0 0 0 0 0 0 0 0 127 0" result="hardAlpha"/>
<feOffset dy="4"/>
<feGaussianBlur stdDeviation="2"/>
<feComposite in2="hardAlpha" operator="out"/>
<feColorMatrix type="matrix" values="0 0 0 0 0 0 0 0 0 0 0 0 0 0 0 0 0 0 0.25 0"/>
<feBlend mode="normal" in2="BackgroundImageFix" result="effect1_dropShadow_103_20"/>
<feBlend mode="normal" in="SourceGraphic" in2="effect1_dropShadow_103_20" result="shape"/>
</filter>
<clipPath id="clip0_103_20">
<rect width="87" height="48" fill="white" transform="translate(0 9)"/>
</clipPath>
</defs>
</svg>
